<?xml version="1.0" standalone="no"?>
<!DOCTYPE svg PUBLIC "-//W3C//DTD SVG 20010904//EN"
 "http://www.w3.org/TR/2001/REC-SVG-20010904/DTD/svg10.dtd">
<svg version="1.0" xmlns="http://www.w3.org/2000/svg"
 width="547.000000pt" height="503.000000pt" viewBox="0 0 547.000000 503.000000"
 preserveAspectRatio="xMidYMid meet">

<g transform="translate(0.000000,503.000000) scale(0.100000,-0.100000)"
fill="#000000" stroke="none">
<path d="M2945 4845 c-119 -26 -327 -121 -450 -206 -38 -26 -119 -84 -180
-129 -94 -69 -115 -80 -150 -80 -65 0 -105 -24 -382 -222 -40 -29 -73 -56 -73
-60 0 -5 -42 -49 -93 -99 -90 -87 -96 -92 -255 -164 -89 -41 -165 -75 -168
-75 -12 0 -292 -145 -390 -202 -131 -77 -198 -105 -376 -156 -156 -45 -223
-77 -266 -126 -53 -61 -53 -83 3 -371 8 -38 21 -144 30 -235 8 -91 33 -250 55
-355 65 -318 148 -536 279 -740 54 -85 60 -105 36 -125 -9 -7 -43 -49 -75 -92
-91 -121 -81 -157 51 -179 35 -6 69 -12 76 -14 8 -3 6 -27 -8 -91 -35 -160
-18 -256 51 -284 39 -16 127 -7 181 20 39 18 42 18 82 1 23 -10 77 -26 120
-35 86 -19 261 -91 377 -156 121 -67 111 -40 108 -297 l-3 -222 27 -28 c38
-38 73 -34 251 27 138 47 151 49 188 39 48 -15 131 -2 304 48 66 20 167 48
225 63 156 41 385 127 622 233 31 15 89 37 130 50 117 40 418 191 548 277 66
44 136 88 157 99 21 10 67 39 103 64 36 24 117 79 180 122 219 147 367 283
454 413 59 89 74 94 277 96 141 1 147 2 205 31 73 38 104 85 104 161 0 59 -37
160 -77 212 -129 166 -128 161 -88 266 29 77 31 103 9 134 -12 18 -25 22 -70
22 -30 0 -54 5 -54 10 0 6 18 62 40 125 78 227 120 511 100 674 -26 207 -96
355 -227 487 -147 148 -275 206 -453 208 -124 1 -192 -16 -270 -70 -28 -19
-54 -33 -57 -30 -3 3 2 21 11 40 9 19 16 37 16 42 0 4 7 14 16 23 8 9 51 70
94 136 95 145 168 230 214 245 56 18 81 54 81 113 0 37 7 63 23 88 25 40 28
69 10 87 -19 19 -109 14 -209 -13 -52 -14 -127 -32 -168 -40 -184 -37 -228
-124 -217 -425 3 -91 8 -176 12 -189 14 -47 -14 -11 -32 41 -18 54 -200 332
-313 477 -76 98 -229 230 -331 285 -116 62 -275 82 -415 51z m-586 -556 c164
-53 513 -244 731 -399 62 -44 184 -111 350 -193 225 -111 268 -136 366 -214
102 -81 187 -145 345 -262 l60 -43 94 12 c110 15 199 7 266 -21 128 -55 182
-199 109 -292 -27 -34 -25 -42 15 -66 72 -42 146 -103 184 -151 35 -45 39 -54
34 -92 -7 -53 -177 -408 -195 -408 -47 1 -179 45 -239 81 -60 36 -82 58 -154
153 -47 61 -104 133 -127 159 -42 47 -45 48 -91 45 l-48 -3 83 -90 c46 -49
103 -115 128 -145 24 -30 60 -72 79 -93 39 -42 152 -121 189 -132 13 -4 49
-34 82 -67 44 -46 64 -59 79 -55 24 6 77 -48 87 -90 17 -65 -138 -307 -300
-468 -109 -108 -314 -260 -518 -384 -40 -24 -124 -78 -186 -119 -136 -89 -407
-225 -592 -297 -74 -29 -187 -76 -250 -104 -152 -69 -299 -126 -385 -149 -38
-11 -155 -48 -260 -83 -185 -62 -192 -64 -285 -62 -108 3 -178 -7 -285 -42
-42 -14 -82 -25 -90 -25 -13 0 -15 32 -15 211 0 238 -4 257 -68 299 -138 90
-360 190 -496 221 -50 12 -94 24 -98 28 -4 3 1 15 10 26 37 43 190 174 247
211 l60 39 -32 3 c-48 5 -110 -27 -236 -121 -143 -107 -167 -130 -167 -161 0
-23 -4 -25 -76 -31 -60 -6 -78 -5 -85 6 -15 24 -10 131 11 217 24 102 24 104
1 133 -14 18 -32 24 -85 30 -37 3 -69 9 -73 12 -6 7 39 67 99 134 21 24 38 52
38 63 0 29 15 25 37 -9 l18 -30 21 39 21 38 -79 138 c-166 288 -227 479 -258
809 -15 155 -42 297 -58 303 -9 3 -12 -29 -12 -135 0 -338 54 -614 161 -828
17 -33 35 -71 40 -85 18 -50 -21 11 -52 80 -16 36 -34 73 -39 83 -29 49 -93
261 -128 422 -44 198 -47 220 -62 382 -6 62 -24 183 -40 270 -31 165 -37 251
-20 284 15 28 66 50 235 104 181 57 250 89 443 204 176 105 638 335 659 327 8
-4 30 10 52 33 47 47 109 81 151 81 17 0 74 -16 127 -36 53 -20 180 -65 281
-100 101 -35 221 -83 266 -107 127 -68 331 -201 436 -285 142 -115 166 -132
270 -197 160 -99 203 -127 265 -175 33 -25 103 -76 155 -112 52 -36 127 -96
166 -132 l71 -65 7 47 7 47 -60 57 c-33 31 -88 76 -123 99 -35 23 -110 77
-168 119 -58 43 -154 106 -214 140 -118 68 -203 126 -348 236 -100 77 -319
214 -433 272 -38 19 -196 76 -350 126 -154 50 -291 99 -304 108 -40 28 -23 49
100 123 64 39 130 80 147 93 81 59 147 62 301 11z m-639 -239 c0 -5 -4 -10
-10 -10 -5 0 -10 5 -10 10 0 6 5 10 10 10 6 0 10 -4 10 -10z m3345 -1649 c3
-6 -6 -39 -21 -76 -42 -105 -27 -160 83 -290 45 -52 84 -137 86 -185 2 -49
-28 -83 -86 -99 -40 -10 -288 -31 -296 -24 -2 1 10 31 26 65 17 35 34 76 37
91 10 42 -10 100 -54 156 -22 28 -40 58 -40 67 0 9 20 46 44 83 24 36 61 98
82 138 40 73 45 77 111 82 12 0 24 -3 28 -8z"/>
<path d="M368 3040 c-50 -39 -60 -118 -23 -166 14 -18 15 -16 10 26 -5 35 -1
52 15 78 11 18 27 35 35 38 24 10 82 -34 118 -89 36 -56 135 -269 202 -437 42
-103 99 -280 93 -284 -2 -1 -24 -10 -51 -20 -71 -26 -128 -111 -131 -194 -2
-62 19 -72 147 -72 53 0 97 -4 97 -8 0 -4 -18 -62 -40 -127 -22 -65 -40 -135
-40 -153 l0 -35 33 44 c21 28 47 87 72 162 32 98 36 121 27 142 -11 25 -14 25
-127 25 -132 0 -133 1 -94 86 26 54 57 77 117 84 70 8 73 21 28 157 -65 199
-230 572 -296 667 -59 87 -139 118 -192 76z"/>
<path d="M1580 2858 c-157 -12 -154 -9 -147 -168 6 -152 20 -194 73 -216 34
-14 47 -14 158 5 154 27 169 26 296 -4 58 -13 132 -30 164 -37 33 -7 61 -18
63 -24 2 -6 -13 -18 -34 -27 -21 -8 -81 -33 -133 -55 -239 -99 -437 -200 -462
-236 -13 -18 -10 -21 37 -44 62 -30 98 -87 103 -163 2 -32 7 -59 11 -59 3 0
36 23 73 51 37 27 114 74 172 104 57 29 140 76 183 104 114 73 178 98 321 126
177 35 170 33 192 55 29 29 25 90 -14 200 -65 184 -98 231 -186 269 -88 38
-516 116 -680 124 -41 2 -127 -1 -190 -5z"/>
<path d="M3380 2380 c-30 -11 -69 -19 -87 -19 -76 -2 -109 -42 -61 -75 42 -30
240 -14 281 22 38 34 7 93 -49 91 -16 -1 -54 -9 -84 -19z"/>
<path d="M3260 2052 c-27 -12 -71 -17 -185 -19 -196 -3 -210 -5 -225 -46 -21
-57 -24 -261 -6 -380 40 -254 126 -407 229 -407 106 0 250 128 351 315 35 63
106 260 136 375 7 24 21 50 31 58 23 16 25 45 4 66 -12 12 -30 14 -79 9 -55
-5 -71 -2 -121 21 -65 30 -86 31 -135 8z m-40 -274 c19 -9 57 -37 83 -62 27
-26 62 -50 78 -53 16 -3 29 -7 29 -10 0 -10 -46 -94 -85 -154 -90 -139 -217
-237 -271 -209 -52 28 -127 243 -140 402 -10 116 -17 111 139 106 90 -3 143
-9 167 -20z"/>
</g>
</svg>
